REM DIRINDEX 1\2,1\3,1\4,1\6,1\5\7,1\5\8
REM DIRNAME folder01,folder02,folder03,folder04,folder05,folder06,folder07,folder08
TITLE ""
FILE "DB4500_5th_1A_22.mp3" MP3
  TRACK 01 AUDIO
    TITLE "0:"
    INDEX 01 00:00:00
  TRACK 02 AUDIO
    TITLE "2:cjc114_0649"
    INDEX 01 00:00:01
  TRACK 03 AUDIO
    TITLE "0:"
    INDEX 01 00:01:09
  TRACK 04 AUDIO
    TITLE "3:cjc114_0650"
    INDEX 01 00:01:38
  TRACK 05 AUDIO
    TITLE "0:"
    INDEX 01 00:02:42
  TRACK 06 AUDIO
    TITLE "4:cjc114_0651"
    INDEX 01 00:02:67
  TRACK 07 AUDIO
    TITLE "0:"
    INDEX 01 00:06:04
  TRACK 08 AUDIO
    TITLE "4:cjc114_0652"
    INDEX 01 00:06:41
  TRACK 09 AUDIO
    TITLE "0:"
    INDEX 01 00:09:02
  TRACK 10 AUDIO
    TITLE "2:cjc114_0653"
    INDEX 01 00:09:55
  TRACK 11 AUDIO
    TITLE "0:"
    INDEX 01 00:10:61
  TRACK 12 AUDIO
    TITLE "3:cjc114_0654"
    INDEX 01 00:11:13
  TRACK 13 AUDIO
    TITLE "0:"
    INDEX 01 00:12:16
  TRACK 14 AUDIO
    TITLE "4:cjc114_0655"
    INDEX 01 00:12:46
  TRACK 15 AUDIO
    TITLE "0:"
    INDEX 01 00:15:42
  TRACK 16 AUDIO
    TITLE "4:cjc114_0656"
    INDEX 01 00:16:30
  TRACK 17 AUDIO
    TITLE "0:"
    INDEX 01 00:18:54
  TRACK 18 AUDIO
    TITLE "4:cjc114_0657"
    INDEX 01 00:19:30
  TRACK 19 AUDIO
    TITLE "0:"
    INDEX 01 00:22:30
  TRACK 20 AUDIO
    TITLE "2:cjc114_0658"
    INDEX 01 00:23:10
  TRACK 21 AUDIO
    TITLE "0:"
    INDEX 01 00:24:16
  TRACK 22 AUDIO
    TITLE "3:cjc114_0659"
    INDEX 01 00:24:45
  TRACK 23 AUDIO
    TITLE "0:"
    INDEX 01 00:25:48
  TRACK 24 AUDIO
    TITLE "4:cjc114_0660"
    INDEX 01 00:26:03
  TRACK 25 AUDIO
    TITLE "0:"
    INDEX 01 00:28:35
  TRACK 26 AUDIO
    TITLE "2:cjc114_0661"
    INDEX 01 00:29:13
  TRACK 27 AUDIO
    TITLE "0:"
    INDEX 01 00:30:42
  TRACK 28 AUDIO
    TITLE "3:cjc114_0662"
    INDEX 01 00:30:71
  TRACK 29 AUDIO
    TITLE "0:"
    INDEX 01 00:32:17
  TRACK 30 AUDIO
    TITLE "4:cjc114_0663"
    INDEX 01 00:32:47
  TRACK 31 AUDIO
    TITLE "0:"
    INDEX 01 00:35:70
  TRACK 32 AUDIO
    TITLE "2:cjc114_0664"
    INDEX 01 00:36:56
  TRACK 33 AUDIO
    TITLE "0:"
    INDEX 01 00:37:67
  TRACK 34 AUDIO
    TITLE "3:cjc114_0665"
    INDEX 01 00:38:14
  TRACK 35 AUDIO
    TITLE "0:"
    INDEX 01 00:39:23
  TRACK 36 AUDIO
    TITLE "4:cjc114_0666"
    INDEX 01 00:39:51
  TRACK 37 AUDIO
    TITLE "0:"
    INDEX 01 00:42:08
  TRACK 38 AUDIO
    TITLE "2:cjc114_0667"
    INDEX 01 00:42:57
  TRACK 39 AUDIO
    TITLE "0:"
    INDEX 01 00:43:72
  TRACK 40 AUDIO
    TITLE "3:cjc114_0668"
    INDEX 01 00:44:20
  TRACK 41 AUDIO
    TITLE "0:"
    INDEX 01 00:46:62
  TRACK 42 AUDIO
    TITLE "4:cjc114_0669"
    INDEX 01 00:47:11
  TRACK 43 AUDIO
    TITLE "0:"
    INDEX 01 00:49:63
  TRACK 44 AUDIO
    TITLE "4:cjc114_0670"
    INDEX 01 00:50:35
  TRACK 45 AUDIO
    TITLE "0:"
    INDEX 01 00:54:27
  TRACK 46 AUDIO
    TITLE "2:cjc114_0671"
    INDEX 01 00:55:03
  TRACK 47 AUDIO
    TITLE "0:"
    INDEX 01 00:56:14
  TRACK 48 AUDIO
    TITLE "3:cjc114_0672"
    INDEX 01 00:56:39
  TRACK 49 AUDIO
    TITLE "0:"
    INDEX 01 00:59:24
  TRACK 50 AUDIO
    TITLE "4:cjc114_0673"
    INDEX 01 00:59:45
  TRACK 51 AUDIO
    TITLE "0:"
    INDEX 01 01:02:14
  TRACK 52 AUDIO
    TITLE "4:cjc114_0674"
    INDEX 01 01:02:44
  TRACK 53 AUDIO
    TITLE "0:"
    INDEX 01 01:07:59
  TRACK 54 AUDIO
    TITLE "2:cjc114_0675"
    INDEX 01 01:08:31
  TRACK 55 AUDIO
    TITLE "0:"
    INDEX 01 01:09:38
  TRACK 56 AUDIO
    TITLE "3:cjc114_0676"
    INDEX 01 01:09:63
  TRACK 57 AUDIO
    TITLE "0:"
    INDEX 01 01:12:28
  TRACK 58 AUDIO
    TITLE "4:cjc114_0677"
    INDEX 01 01:12:48
  TRACK 59 AUDIO
    TITLE "0:"
    INDEX 01 01:16:14
  TRACK 60 AUDIO
    TITLE "2:cjc114_0678"
    INDEX 01 01:16:63
  TRACK 61 AUDIO
    TITLE "0:"
    INDEX 01 01:17:69
  TRACK 62 AUDIO
    TITLE "3:cjc114_0679"
    INDEX 01 01:18:19
  TRACK 63 AUDIO
    TITLE "0:"
    INDEX 01 01:20:48
  TRACK 64 AUDIO
    TITLE "4:cjc114_0680"
    INDEX 01 01:20:73
  TRACK 65 AUDIO
    TITLE "0:"
    INDEX 01 01:25:13
  TRACK 66 AUDIO
    TITLE "2:cjc114_0681"
    INDEX 01 01:25:64
  TRACK 67 AUDIO
    TITLE "0:"
    INDEX 01 01:26:66
  TRACK 68 AUDIO
    TITLE "3:cjc114_0682"
    INDEX 01 01:27:16
  TRACK 69 AUDIO
    TITLE "0:"
    INDEX 01 01:29:56
  TRACK 70 AUDIO
    TITLE "4:cjc114_0683"
    INDEX 01 01:30:07
  TRACK 71 AUDIO
    TITLE "0:"
    INDEX 01 01:33:13
  TRACK 72 AUDIO
    TITLE "2:cjc114_0684"
    INDEX 01 01:33:58
  TRACK 73 AUDIO
    TITLE "0:"
    INDEX 01 01:34:54
  TRACK 74 AUDIO
    TITLE "3:cjc114_0685"
    INDEX 01 01:35:04
  TRACK 75 AUDIO
    TITLE "0:"
    INDEX 01 01:37:01
  TRACK 76 AUDIO
    TITLE "4:cjc114_0686"
    INDEX 01 01:37:26
  TRACK 77 AUDIO
    TITLE "0:"
    INDEX 01 01:40:44
